<svg version="1.1" xmlns="http://www.w3.org/2000/svg" xmlns:xlink="http://www.w3.org/1999/xlink" width="31.82023" height="32.262" viewBox="0,0,31.82023,32.262"><g transform="translate(-359.08988,-163.869)"><g data-paper-data="{&quot;isPaintingLayer&quot;:true}" fill="none" fill-rule="nonzero" stroke="#ffffff" stroke-width="5" stroke-linejoin="miter" stroke-miterlimit="10" stroke-dasharray="" stroke-dashoffset="0" style="mix-blend-mode: normal"><path d="M367.77648,180c0,-3.98944 3.23408,-7.22352 7.22352,-7.22352c3.98944,0 7.22352,3.23408 7.22352,7.22352c0,3.98944 -3.23408,7.22352 -7.22352,7.22352c-3.98944,0 -7.22352,-3.23408 -7.22352,-7.22352z" stroke-linecap="butt"/><g stroke-linecap="round"><path d="M375,170.80384l0,-4.43484"/><path d="M381.24085,172.5127l2.97597,-2.97596"/><path d="M368.59492,172.51271l-2.97597,-2.97597"/><path d="M375,193.631l0,-4.64603" data-paper-data="{&quot;index&quot;:null}"/><path d="M384.21681,190.25208l-2.97597,-2.97597" data-paper-data="{&quot;index&quot;:null}"/><path d="M368.59492,187.27611l-2.97596,2.97597" data-paper-data="{&quot;index&quot;:null}"/><path d="M365.17999,179.77912l-3.59011,0"/><path d="M388.41012,179.77912l-3.59011,0"/></g></g></g></svg>