<svg version="1.1" xmlns="http://www.w3.org/2000/svg" xmlns:xlink="http://www.w3.org/1999/xlink" width="117.83191" height="112.69025" viewBox="0,0,117.83191,112.69025"><g transform="translate(-301.08404,-123.65488)"><g data-paper-data="{&quot;isPaintingLayer&quot;:true}" fill="#6d6094" fill-rule="nonzero" stroke="none" stroke-width="1" stroke-linecap="butt" stroke-linejoin="miter" stroke-miterlimit="10" stroke-dasharray="" stroke-dashoffset="0" style="mix-blend-mode: normal"><path d="M355.684,124.39213c2.793,-0.983 5.839,-0.983 8.632,0l30.137,10.606c2.866,1.009 5.289,2.99 6.846,5.599l15.778,26.425c1.614,2.703 2.193,5.9 1.628,8.997l-5.448,29.872c-0.556,3.053 -2.187,5.807 -4.598,7.763l-24.387,19.786c-2.316,1.879 -5.208,2.905 -8.19,2.905h-32.164c-2.982,0 -5.874,-1.026 -8.19,-2.905l-24.387,-19.786c-2.411,-1.956 -4.042,-4.71 -4.598,-7.763l-5.448,-29.872c-0.565,-3.097 0.014,-6.294 1.628,-8.997l15.778,-26.425c1.557,-2.609 3.98,-4.59 6.846,-5.599z"/></g></g></svg>