<svg version="1.1" xmlns="http://www.w3.org/2000/svg" xmlns:xlink="http://www.w3.org/1999/xlink" width="411.1455" height="433.4695" viewBox="0,0,411.1455,433.4695"><defs><linearGradient x1="154.42725" y1="180" x2="565.57275" y2="180" gradientUnits="userSpaceOnUse" id="color-1"><stop offset="0" stop-color="#211b34"/><stop offset="1" stop-color="#331536"/></linearGradient></defs><g transform="translate(-154.42725,36.73475)"><g data-paper-data="{&quot;isPaintingLayer&quot;:true}" fill="url(#color-1)" fill-rule="nonzero" stroke="none" stroke-width="1" stroke-linecap="butt" stroke-linejoin="miter" stroke-miterlimit="10" stroke-dasharray="" stroke-dashoffset="0" style="mix-blend-mode: normal"><path d="M347.7528,-35.036c8.0077,-2.265 16.4867,-2.265 24.4944,0l79.3438,22.441c7.795,2.205 14.85,6.472 20.421,12.353l59.191,62.48c5.288,5.582 9.057,12.425 10.949,19.877l22.037,86.813c1.845,7.266 1.845,14.878 0,22.144l-22.037,86.813c-1.892,7.452 -5.661,14.295 -10.949,19.877l-59.191,62.48c-5.571,5.881 -12.626,10.148 -20.421,12.353l-79.3438,22.441c-8.0077,2.265 -16.4866,2.265 -24.4943,0l-79.3438,-22.441c-7.7947,-2.205 -14.8498,-6.472 -20.4208,-12.353l-59.1913,-62.48c-5.288,-5.582 -9.057,-12.425 -10.949,-19.877l-22.037,-86.813c-1.845,-7.266 -1.845,-14.878 0,-22.144l22.037,-86.813c1.892,-7.452 5.661,-14.295 10.949,-19.877l59.1913,-62.48c5.571,-5.881 12.6261,-10.148 20.4207,-12.353z"/></g></g></svg>