<svg version="1.1" xmlns="http://www.w3.org/2000/svg" xmlns:xlink="http://www.w3.org/1999/xlink" width="320.80259" height="43.86668" viewBox="0,0,320.80259,43.86668"><g transform="translate(-101.23534,-158.06666)"><g data-paper-data="{&quot;isPaintingLayer&quot;:true}" fill-rule="nonzero" stroke="none" stroke-linecap="butt" stroke-linejoin="miter" stroke-miterlimit="10" stroke-dasharray="" stroke-dashoffset="0" style="mix-blend-mode: normal"><path d="M101.23534,179.99999c0,-12.11346 9.81986,-21.93332 21.93332,-21.93332c12.11346,0 21.93335,9.81986 21.93335,21.93332c0,12.11346 -9.81989,21.93335 -21.93335,21.93335c-12.11346,0 -21.93332,-9.81989 -21.93332,-21.93335z" fill="#6960a1" stroke-width="NaN"/><path d="M120.77193,201.93333v-43.86666h278.80355v43.86666z" fill="#6960a1" stroke-width="0"/><path d="M400.10461,201.93333c-12.11346,0 -21.93335,-9.81989 -21.93335,-21.93335c0,-12.11346 9.81989,-21.93332 21.93335,-21.93332c12.11346,0 21.93332,9.81986 21.93332,21.93332c0,12.11346 -9.81986,21.93335 -21.93332,21.93335z" data-paper-data="{&quot;index&quot;:null}" fill="#6960a1" stroke-width="NaN"/><text transform="translate(120.78743,186.99134) scale(0.5,0.5)" font-size="40" xml:space="preserve" fill="#9f95dc" fill-rule="nonzero" stroke="none" stroke-width="1" stroke-linecap="butt" stroke-linejoin="miter" stroke-miterlimit="10" stroke-dasharray="" stroke-dashoffset="0" font-family="&quot;Urbanist-Medium&quot;, Sans Serif" font-weight="normal" text-anchor="start" style="mix-blend-mode: normal"><tspan x="0" dy="0">Say something... (press to chat)</tspan></text></g></g></svg>