<svg version="1.1" xmlns="http://www.w3.org/2000/svg" xmlns:xlink="http://www.w3.org/1999/xlink" width="401.34601" height="105.06203" viewBox="0,0,401.34601,105.06203"><defs><linearGradient x1="286.38515" y1="175.45702" x2="367.01174" y2="175.45702" gradientUnits="userSpaceOnUse" id="color-1"><stop offset="0" stop-color="#592323"/><stop offset="1" stop-color="#422353"/></linearGradient><linearGradient x1="286.38515" y1="175.45702" x2="367.01174" y2="175.45702" gradientUnits="userSpaceOnUse" id="color-2"><stop offset="0" stop-color="#24020b"/><stop offset="1" stop-color="#1d0026"/></linearGradient><linearGradient x1="364.80049" y1="184.11163" x2="387.07124" y2="184.11163" gradientUnits="userSpaceOnUse" id="color-3"><stop offset="0" stop-color="#5b3030"/><stop offset="1" stop-color="#3b1f4a"/></linearGradient><linearGradient x1="383.00937" y1="191.05996" x2="410.47647" y2="191.05996" gradientUnits="userSpaceOnUse" id="color-4"><stop offset="0" stop-color="#5b3030"/><stop offset="1" stop-color="#3b1f4a"/></linearGradient><linearGradient x1="159.327" y1="173.74589" x2="560.67301" y2="173.74589" gradientUnits="userSpaceOnUse" id="color-5"><stop offset="0" stop-color="#ff8989"/><stop offset="1" stop-color="#d070ff"/></linearGradient></defs><g transform="translate(-159.327,-123.94298)"><g data-paper-data="{&quot;isPaintingLayer&quot;:true}" fill-rule="nonzero" stroke-miterlimit="10" stroke-dasharray="" stroke-dashoffset="0" style="mix-blend-mode: normal"><path d="M337.28859,222.64845c-1.68236,5.17654 -8.71512,5.88294 -11.39502,1.14419l-19.91314,-35.24512c-0.76926,-1.36309 -2.02321,-2.38783 -3.51169,-2.87158l-11.76088,-3.82096c-3.28654,-1.06758 -5.08148,-4.59584 -4.01515,-7.88082l10.4569,-32.18842c1.06946,-3.28498 4.59678,-5.08273 7.88333,-4.01515l11.75776,3.82096c1.48848,0.48376 3.10517,0.39151 4.53111,-0.25861l36.82742,-16.80859c4.95014,-2.25993 10.2255,2.44568 8.54314,7.62222z" fill="url(#color-1)" stroke="url(#color-2)" stroke-width="0" stroke-linecap="round" stroke-linejoin="round"/><path d="M380.50773,159.93865c6.01334,8.20791 8.32111,18.54317 5.12213,28.38873c-3.19899,9.84556 -11.14172,16.84987 -20.82937,19.95723" fill="none" stroke="url(#color-3)" stroke-width="8" stroke-linecap="round" stroke-linejoin="round"/><path d="M405.06768,157.11491c5.71314,11.84782 7.21413,25.494 2.98634,38.49915c-4.22466,13.00483 -13.45888,23.16403 -25.04465,29.39095" fill="none" stroke="url(#color-4)" stroke-width="8" stroke-linecap="round" stroke-linejoin="round"/><path d="M159.327,192.50826v-56.28713h6.30416v56.28713zM190.78838,193.4839c-3.45228,0 -6.60436,-0.88809 -9.45624,-2.66426c-2.82686,-1.77617 -5.09086,-4.15274 -6.79198,-7.1297c-1.67611,-3.00198 -2.51416,-6.31667 -2.51416,-9.94406c0,-2.75182 0.48782,-5.31601 1.46347,-7.69257c0.97564,-2.40158 2.31403,-4.50297 4.01515,-6.30416c1.72614,-1.8262 3.72746,-3.25215 6.00396,-4.27782c2.2765,-1.02568 4.7031,-1.53851 7.2798,-1.53851c3.45228,0 6.59185,0.88809 9.41871,2.66426c2.85188,1.77617 5.11587,4.16525 6.79198,7.16723c1.70112,3.00198 2.55168,6.32918 2.55168,9.98158c0,2.7268 -0.48782,5.27848 -1.46347,7.65505c-0.97564,2.37657 -2.32653,4.47795 -4.05267,6.30416c-1.70112,1.80119 -3.68993,3.21462 -5.96644,4.2403c-2.25149,1.02568 -4.67809,1.53851 -7.2798,1.53851zM190.78838,187.17974c2.35155,0 4.46545,-0.6129 6.34168,-1.83871c1.90125,-1.25083 3.38974,-2.88941 4.46545,-4.91574c1.10073,-2.05135 1.65109,-4.27782 1.65109,-6.67941c0,-2.45162 -0.56287,-4.7031 -1.68861,-6.75446c-1.10073,-2.05135 -2.58921,-3.68993 -4.46545,-4.91574c-1.87624,-1.22581 -3.97762,-1.83871 -6.30416,-1.83871c-2.35155,0 -4.46545,0.62541 -6.34168,1.87624c-1.87624,1.22581 -3.36472,2.86439 -4.46545,4.91574c-1.10073,2.05135 -1.65109,4.29033 -1.65109,6.71693c0,2.50165 0.56287,4.77815 1.68861,6.82951c1.12574,2.02634 2.63924,3.6399 4.5405,4.84069c1.90125,1.17578 3.97762,1.76366 6.22911,1.76366zM213.74727,178.24885v-23.26535h6.30416v21.87693c0,1.90125 0.46281,3.62739 1.38842,5.17842c0.92561,1.55102 2.16393,2.78934 3.71495,3.71495c1.57604,0.90059 3.30218,1.35089 5.17842,1.35089c1.90125,0 3.61488,-0.4503 5.14089,-1.35089c1.55102,-0.92561 2.78934,-2.16393 3.71495,-3.71495c0.92561,-1.55102 1.38842,-3.27716 1.38842,-5.17842v-21.87693h6.30416l0.03752,37.52475h-6.30416l-0.03752,-4.76564c-1.32587,1.75116 -3.00198,3.15208 -5.02832,4.20277c-2.02634,1.02568 -4.21528,1.53851 -6.56683,1.53851c-2.80185,0 -5.36604,-0.67545 -7.69257,-2.02634c-2.30152,-1.37591 -4.14023,-3.21462 -5.51614,-5.51614c-1.35089,-2.30152 -2.02634,-4.86571 -2.02634,-7.69257zM284.30006,136.22113h6.30416v56.28713h-6.30416v-6.37921c-1.27584,2.20145 -2.98947,3.97762 -5.14089,5.32851c-2.15142,1.35089 -4.67809,2.02634 -7.58,2.02634c-2.7268,0 -5.27848,-0.51284 -7.65505,-1.53851c-2.37657,-1.02568 -4.47795,-2.43911 -6.30416,-4.2403c-1.80119,-1.8262 -3.21462,-3.92759 -4.2403,-6.30416c-1.02568,-2.37657 -1.53851,-4.92825 -1.53851,-7.65505c0,-2.7268 0.51284,-5.27848 1.53851,-7.65505c1.02568,-2.40158 2.43911,-4.50297 4.2403,-6.30416c1.8262,-1.8262 3.92759,-3.25215 6.30416,-4.27782c2.37657,-1.02568 4.92825,-1.53851 7.65505,-1.53851c2.90191,0 5.42858,0.67545 7.58,2.02634c2.15142,1.35089 3.86505,3.12706 5.14089,5.32851zM271.65422,187.36737c2.47663,0 4.61554,-0.6004 6.41673,-1.80119c1.8262,-1.22581 3.22713,-2.8769 4.20277,-4.95327c1.00066,-2.07637 1.50099,-4.36538 1.50099,-6.86703c0,-2.55168 -0.50033,-4.8532 -1.50099,-6.90455c-1.00066,-2.07637 -2.41409,-3.71495 -4.2403,-4.91574c-1.80119,-1.22581 -3.92759,-1.83871 -6.37921,-1.83871c-2.47663,0 -4.72812,0.6129 -6.75446,1.83871c-2.00132,1.22581 -3.60238,2.8769 -4.80317,4.95327c-1.20079,2.05135 -1.80119,4.34036 -1.80119,6.86703c0,2.52667 0.6129,4.82818 1.83871,6.90455c1.22581,2.05135 2.85188,3.68993 4.87822,4.91574c2.02634,1.20079 4.2403,1.80119 6.64188,1.80119zM311.04896,193.22123c-2.02634,-0.07505 -4.00264,-0.4503 -5.92891,-1.12574c-1.90125,-0.70046 -3.57736,-1.63858 -5.02832,-2.81436c-1.42594,-1.20079 -2.46413,-2.5767 -3.11455,-4.12772l5.40356,-2.32653c0.37525,0.85056 1.05069,1.65109 2.02634,2.40158c0.97564,0.7505 2.10139,1.35089 3.37723,1.80119c1.27584,0.4503 2.56419,0.67545 3.86505,0.67545c1.37591,0 2.66426,-0.21264 3.86505,-0.63792c1.20079,-0.42528 2.17644,-1.05069 2.92693,-1.87624c0.77551,-0.85056 1.16327,-1.86373 1.16327,-3.03951c0,-1.25083 -0.42528,-2.22647 -1.27584,-2.92693c-0.82554,-0.72548 -1.87624,-1.28835 -3.15208,-1.68861c-1.25083,-0.42528 -2.52667,-0.82554 -3.82752,-1.20079c-2.5767,-0.65043 -4.87822,-1.42594 -6.90455,-2.32653c-2.02634,-0.92561 -3.62739,-2.08888 -4.80317,-3.4898c-1.15076,-1.42594 -1.72614,-3.23964 -1.72614,-5.44109c0,-2.32653 0.63792,-4.34036 1.91376,-6.04149c1.30086,-1.70112 3.00198,-3.01449 5.10337,-3.9401c2.10139,-0.92561 4.35287,-1.38842 6.75446,-1.38842c3.027,0 5.79132,0.65043 8.29297,1.95129c2.50165,1.30086 4.36538,3.06452 5.59119,5.29099l-5.06584,2.96446c-0.42528,-0.90059 -1.07571,-1.68861 -1.95129,-2.36406c-0.87558,-0.70046 -1.87624,-1.25083 -3.00198,-1.65109c-1.12574,-0.40026 -2.2765,-0.6129 -3.45228,-0.63792c-1.45096,-0.05003 -2.81436,0.13759 -4.0902,0.56287c-1.25083,0.42528 -2.26399,1.07571 -3.03951,1.95129c-0.7505,0.85056 -1.12574,1.91376 -1.12574,3.1896c0,1.25083 0.40026,2.20145 1.20079,2.85188c0.82554,0.65043 1.88875,1.17578 3.1896,1.57604c1.32587,0.37525 2.76432,0.81304 4.31535,1.31337c2.2765,0.72548 4.4029,1.56353 6.37921,2.51416c1.9763,0.95063 3.56485,2.13891 4.76564,3.56485c1.22581,1.42594 1.8262,3.1896 1.80119,5.29099c0,2.30152 -0.68795,4.31535 -2.06386,6.04149c-1.37591,1.70112 -3.16459,3.00198 -5.36604,3.90257c-2.17644,0.90059 -4.51548,1.30086 -7.01713,1.20079zM338.22939,211.27064h-6.30416v-56.28713h6.30416v6.41673c1.27584,-2.20145 2.97696,-3.97762 5.10337,-5.32851c2.1264,-1.37591 4.65307,-2.06386 7.58,-2.06386c2.7268,0 5.27848,0.51284 7.65505,1.53851c2.40158,1.02568 4.50297,2.45162 6.30416,4.27782c1.80119,1.80119 3.21462,3.89007 4.2403,6.26663c1.02568,2.37657 1.53851,4.92825 1.53851,7.65505c0,2.7268 -0.51284,5.29099 -1.53851,7.69257c-1.02568,2.40158 -2.43911,4.51548 -4.2403,6.34168c-1.80119,1.80119 -3.90257,3.21462 -6.30416,4.2403c-2.37657,1.02568 -4.92825,1.53851 -7.65505,1.53851c-2.92693,0 -5.4536,-0.67545 -7.58,-2.02634c-2.1264,-1.37591 -3.82752,-3.16459 -5.10337,-5.36604zM350.83771,160.1244c-2.4266,0 -4.553,0.6129 -6.37921,1.83871c-1.8262,1.22581 -3.23964,2.86439 -4.2403,4.91574c-0.97564,2.05135 -1.46347,4.34036 -1.46347,6.86703c0,2.50165 0.48782,4.79066 1.46347,6.86703c1.00066,2.07637 2.40158,3.72746 4.20277,4.95327c1.8262,1.22581 3.96512,1.83871 6.41673,1.83871c2.4266,0 4.65307,-0.6004 6.67941,-1.80119c2.02634,-1.22581 3.65241,-2.86439 4.87822,-4.91574c1.22581,-2.07637 1.83871,-4.3904 1.83871,-6.94208c0,-2.50165 -0.6004,-4.77815 -1.80119,-6.82951c-1.20079,-2.07637 -2.81436,-3.72746 -4.84069,-4.95327c-2.02634,-1.22581 -4.27782,-1.83871 -6.75446,-1.83871zM393.21879,193.4839c-3.45228,0 -6.60436,-0.88809 -9.45624,-2.66426c-2.82686,-1.77617 -5.09086,-4.15274 -6.79198,-7.1297c-1.67611,-3.00198 -2.51416,-6.31667 -2.51416,-9.94406c0,-2.75182 0.48782,-5.31601 1.46347,-7.69257c0.97564,-2.40158 2.31403,-4.50297 4.01515,-6.30416c1.72614,-1.8262 3.72746,-3.25215 6.00396,-4.27782c2.2765,-1.02568 4.7031,-1.53851 7.2798,-1.53851c2.82686,0 5.41607,0.57538 7.76762,1.72614c2.37657,1.12574 4.4029,2.70178 6.07901,4.72812c1.70112,2.02634 2.96446,4.37789 3.79,7.05465c0.85056,2.67677 1.16327,5.54116 0.93812,8.59317h-30.6202c0.3002,2.1264 1.00066,4.02766 2.10139,5.70376c1.10073,1.65109 2.50165,2.96446 4.20277,3.9401c1.72614,0.97564 3.6399,1.47597 5.74129,1.50099c2.25149,0 4.29033,-0.57538 6.11653,-1.72614c1.8262,-1.17578 3.30218,-2.77683 4.42792,-4.80317l6.41673,1.50099c-1.50099,3.32719 -3.76498,6.05399 -6.79198,8.1804c-3.027,2.10139 -6.41673,3.15208 -10.16921,3.15208zM380.98572,171.08162h24.46614c-0.20013,-2.10139 -0.87558,-4.01515 -2.02634,-5.74129c-1.15076,-1.75116 -2.61422,-3.15208 -4.3904,-4.20277c-1.77617,-1.05069 -3.71495,-1.57604 -5.81634,-1.57604c-2.10139,0 -4.02766,0.51284 -5.77881,1.53851c-1.75116,1.02568 -3.20211,2.41409 -4.35287,4.16525c-1.12574,1.72614 -1.8262,3.66492 -2.10139,5.81634zM448.06747,154.98351h6.30416v37.52475h-6.30416l-0.26267,-6.34168c-1.17578,2.17644 -2.80185,3.9401 -4.87822,5.29099c-2.05135,1.35089 -4.50297,2.02634 -7.35485,2.02634c-2.75182,0 -5.32851,-0.51284 -7.7301,-1.53851c-2.40158,-1.05069 -4.52799,-2.48914 -6.37921,-4.31535c-1.8262,-1.85122 -3.25215,-3.97762 -4.27782,-6.37921c-1.02568,-2.40158 -1.53851,-4.99079 -1.53851,-7.76762c0,-2.67677 0.50033,-5.20343 1.50099,-7.58c1.00066,-2.37657 2.38908,-4.45294 4.16525,-6.22911c1.80119,-1.80119 3.87756,-3.20211 6.22911,-4.20277c2.35155,-1.02568 4.87822,-1.53851 7.58,-1.53851c2.95195,0 5.54116,0.70046 7.76762,2.10139c2.22647,1.37591 4.02766,3.16459 5.40356,5.36604zM435.45602,187.36737c2.47976,0 4.61867,-0.6004 6.41986,-1.80119c1.8262,-1.22581 3.22713,-2.8769 4.20277,-4.95327c1.00066,-2.07637 1.50099,-4.36538 1.50099,-6.86703c0,-2.55168 -0.50033,-4.8532 -1.50099,-6.90455c-1.00066,-2.07637 -2.41409,-3.71495 -4.2403,-4.91574c-1.80119,-1.22581 -3.92759,-1.83871 -6.38234,-1.83871c-2.47351,0 -4.72499,0.6129 -6.75133,1.83871c-2.02634,1.22581 -3.6399,2.8769 -4.84069,4.95327c-1.17578,2.05135 -1.76366,4.34036 -1.76366,6.86703c0,2.52667 0.6129,4.82818 1.83871,6.90455c1.22581,2.05135 2.85188,3.68993 4.87822,4.91574c2.02634,1.20079 4.2403,1.80119 6.63875,1.80119zM492.74382,192.50826h-7.24228l-9.98158,-17.22386l-6.90455,8.25545v8.96842h-6.30416v-56.28713h6.30416v37.52475l15.72287,-18.76238h8.21792l-12.75842,15.19753zM513.63259,193.4839c-3.45228,0 -6.60436,-0.88809 -9.45624,-2.66426c-2.82686,-1.77617 -5.09086,-4.15274 -6.79198,-7.1297c-1.67611,-3.00198 -2.51416,-6.31667 -2.51416,-9.94406c0,-2.75182 0.48782,-5.31601 1.46347,-7.69257c0.97564,-2.40158 2.31403,-4.50297 4.01515,-6.30416c1.72614,-1.8262 3.72746,-3.25215 6.00396,-4.27782c2.2765,-1.02568 4.7031,-1.53851 7.2798,-1.53851c2.82686,0 5.41607,0.57538 7.76762,1.72614c2.37657,1.12574 4.4029,2.70178 6.07901,4.72812c1.70112,2.02634 2.96446,4.37789 3.79,7.05465c0.85056,2.67677 1.16327,5.54116 0.93812,8.59317h-30.6202c0.3002,2.1264 1.00066,4.02766 2.10139,5.70376c1.10073,1.65109 2.50165,2.96446 4.20277,3.9401c1.72614,0.97564 3.6399,1.47597 5.74129,1.50099c2.25149,0 4.29033,-0.57538 6.11653,-1.72614c1.8262,-1.17578 3.30218,-2.77683 4.42792,-4.80317l6.41673,1.50099c-1.50099,3.32719 -3.76498,6.05399 -6.79198,8.1804c-3.027,2.10139 -6.41673,3.15208 -10.16921,3.15208zM501.39952,171.08162h24.46614c-0.20013,-2.10139 -0.87558,-4.01515 -2.02634,-5.74129c-1.15076,-1.75116 -2.61422,-3.15208 -4.3904,-4.20277c-1.77617,-1.05069 -3.71495,-1.57604 -5.81634,-1.57604c-2.10139,0 -4.02766,0.51284 -5.77881,1.53851c-1.75116,1.02568 -3.20211,2.41409 -4.35287,4.16525c-1.12574,1.72614 -1.8262,3.66492 -2.10139,5.81634zM538.5334,192.50826v-37.52475h6.30416v4.69059c1.32587,-1.75116 3.00198,-3.13957 5.02832,-4.16525c2.02634,-1.05069 4.22779,-1.57604 6.60436,-1.57604c1.45096,0 2.85188,0.18762 4.20277,0.56287l-2.55168,6.30416c-1.02568,-0.32521 -2.02634,-0.48782 -3.00198,-0.48782c-1.87624,0 -3.60238,0.46281 -5.17842,1.38842c-1.55102,0.90059 -2.78934,2.1264 -3.71495,3.67743c-0.92561,1.55102 -1.38842,3.27716 -1.38842,5.17842v21.95198z" fill="url(#color-5)" stroke="none" stroke-width="1" stroke-linecap="butt" stroke-linejoin="miter"/></g></g></svg>