<svg version="1.1" xmlns="http://www.w3.org/2000/svg" xmlns:xlink="http://www.w3.org/1999/xlink" width="51.52022" height="51.49078" viewBox="0,0,51.52022,51.49078"><defs><linearGradient x1="335.50461" y1="181.19035" x2="384.49539" y2="178.80965" gradientUnits="userSpaceOnUse" id="color-1"><stop offset="0" stop-color="#2f2346"/><stop offset="1" stop-color="#413c93"/></linearGradient><linearGradient x1="335.50461" y1="181.19035" x2="384.49539" y2="178.80965" gradientUnits="userSpaceOnUse" id="color-2"><stop offset="0" stop-color="#2f2346"/><stop offset="1" stop-color="#413c93"/></linearGradient></defs><g transform="translate(-334.22517,-154.25461)"><g data-paper-data="{&quot;isPaintingLayer&quot;:true}" fill-rule="nonzero" stroke-miterlimit="10" stroke-dasharray="" stroke-dashoffset="0" style="mix-blend-mode: normal"><path d="M335.50461,181.19035c-0.65741,-13.52843 9.77661,-25.02833 23.30504,-25.68575c13.52843,-0.65741 25.02833,9.77661 25.68575,23.30504c0.65741,13.52843 -9.77661,25.02833 -23.30504,25.68575c-13.52843,0.65741 -25.02833,-9.77661 -25.68575,-23.30504z" fill="url(#color-1)" stroke="#ffffff" stroke-width="2.5" stroke-linecap="butt" stroke-linejoin="miter"/><path d="M335.50461,181.19035c-0.65741,-13.52843 9.77661,-25.02833 23.30504,-25.68575c13.52843,-0.65741 25.02833,9.77661 25.68575,23.30504c0.65741,13.52843 -9.77661,25.02833 -23.30504,25.68575c-13.52843,0.65741 -25.02833,-9.77661 -25.68575,-23.30504z" fill="url(#color-2)" stroke="none" stroke-width="none" stroke-linecap="butt" stroke-linejoin="miter"/><path d="M363.85619,191.59548c0.31954,1.3426 -1.10934,2.42432 -2.31524,1.75259l-8.96485,-4.99855c-0.34652,-0.19343 -0.75326,-0.24961 -1.13933,-0.15773l-3.05018,0.72625c-0.85234,0.20299 -1.70682,-0.32362 -1.90987,-1.17545l-1.98783,-8.34793c-0.20237,-0.85224 0.32365,-1.70721 1.17599,-1.9102l3.0495,-0.72583c0.38606,-0.09188 0.72379,-0.32537 0.94656,-0.65441l5.75104,-8.50188c0.77294,-1.14292 2.53621,-0.82114 2.85576,0.52146z" fill="none" stroke="#ffffff" stroke-width="2.5" stroke-linecap="round" stroke-linejoin="round"/><path d="M364.92847,172.31454c2.38556,0.98235 4.25003,2.91453 4.85794,5.46799c0.60791,2.55348 -0.18615,5.11849 -1.87257,7.0705" fill="none" stroke="#ffffff" stroke-width="2.5" stroke-linecap="round" stroke-linejoin="round"/><path d="M369.87132,168.45973c2.8013,1.80981 4.92843,4.56516 5.73095,7.93838c0.80316,3.37273 0.14624,6.79117 -1.539,9.66906" fill="none" stroke="#ffffff" stroke-width="2.5" stroke-linecap="round" stroke-linejoin="round"/></g></g></svg>