<svg version="1.1" xmlns="http://www.w3.org/2000/svg" xmlns:xlink="http://www.w3.org/1999/xlink" width="98.28191" height="27.78282" viewBox="0,0,98.28191,27.78282"><g transform="translate(-325.82074,-166.1086)"><g data-paper-data="{&quot;isPaintingLayer&quot;:true}" fill-rule="nonzero" stroke-linecap="butt" stroke-linejoin="miter" stroke-miterlimit="10" stroke-dasharray="" stroke-dashoffset="0" style="mix-blend-mode: normal"><path d="M326.57074,178.6415c0,-6.50775 5.27517,-11.78292 11.78292,-11.78292h23.21587c6.50765,0 11.78292,5.27516 11.78292,11.78291v2.717c0,6.50774 -5.27527,11.78291 -11.78292,11.78291h-23.21587c-6.50775,0 -11.78292,-5.27527 -11.78292,-11.78292v-2.717z" data-paper-data="{&quot;index&quot;:null}" fill="#529e3f" stroke="#6dd254" stroke-width="0"/><path d="M347.16173,178.6415c0,-6.50775 5.92102,-11.78292 13.22553,-11.78292h-0.09367c7.3044,0 13.22553,5.27516 13.22553,11.78291v2.717c0,6.50774 -5.92113,11.78291 -13.22553,11.78291h0.09367c-7.30451,0 -13.22553,-5.27527 -13.22553,-11.78292v-2.717z" data-paper-data="{&quot;index&quot;:null}" fill="#ffffff" stroke="none" stroke-width="1"/><text transform="translate(378.09944,185.36446) scale(0.44704,0.44704)" font-size="40" xml:space="preserve" fill="#ffffff" fill-rule="nonzero" stroke="none" stroke-width="1" stroke-linecap="butt" stroke-linejoin="miter" stroke-miterlimit="10" stroke-dasharray="" stroke-dashoffset="0" font-family="&quot;Urbanist-Medium&quot;, Sans Serif" font-weight="normal" text-anchor="start" style="mix-blend-mode: normal"><tspan x="0" dy="0">Music</tspan></text><path d="M326.57074,178.64152c0,-6.50775 5.27517,-11.78292 11.78292,-11.78292h23.21587c6.50765,0 11.78292,5.27516 11.78292,11.78291v2.717c0,6.50774 -5.27527,11.78291 -11.78292,11.78291h-23.21587c-6.50775,0 -11.78292,-5.27527 -11.78292,-11.78292v-2.717z" data-paper-data="{&quot;index&quot;:null}" fill="none" stroke="#6dd254" stroke-width="1.5"/></g></g></svg>